{
    "asset" : {
        "version" : "2.0",
        "generator" : "Khronos glTF Blender I/O v1.2.20"
    },
    "scene" : 0,
    "scenes" : [
        {
            "nodes" : [
                0,
                1
            ],
            "name" : "Scene"
        }
    ],
    "nodes" : [
        {
            "scale" : [
                0.24999988079071045,
                0.5,
                0.24999988079071045
            ],
            "mesh" : 0,
            "translation" : [
                -0.04461117088794708,
                0.5107053518295288,
                0
            ],
            "name" : "Cube"
        },
        {
            "translation" : [
                4.076245307922363,
                5.903861999511719,
                -1.0054539442062378
            ],
            "name" : "Lamp",
            "rotation" : [
                0.16907575726509094,
                0.7558803558349609,
                -0.27217137813568115,
                0.570947527885437
            ]
        }
    ],
    "materials" : [
        {
            "pbrMetallicRoughness" : {},
            "name" : "Material"
        }
    ],
    "meshes" : [
        {
            "name" : "Cube",
            "primitives" : [
                {
                    "indices" : 2,
                    "material" : 0,
                    "attributes" : {
                        "NORMAL" : 0,
                        "POSITION" : 1
                    }
                }
            ]
        }
    ],
    "accessors" : [
        {
            "bufferView" : 0,
            "type" : "VEC3",
            "count" : 24,
            "componentType" : 5126
        },
        {
            "max" : [
                1.0000004768371582,
                1,
                1.0000005960464478
            ],
            "bufferView" : 1,
            "componentType" : 5126,
            "min" : [
                -1.0000003576278687,
                -1,
                -1.0000003576278687
            ],
            "count" : 24,
            "type" : "VEC3"
        },
        {
            "bufferView" : 2,
            "type" : "SCALAR",
            "count" : 36,
            "componentType" : 5123
        }
    ],
    "bufferViews" : [
        {
            "byteOffset" : 0,
            "buffer" : 0,
            "byteLength" : 288
        },
        {
            "byteOffset" : 288,
            "buffer" : 0,
            "byteLength" : 288
        },
        {
            "byteOffset" : 576,
            "buffer" : 0,
            "byteLength" : 72
        }
    ],
    "buffers" : [
        {
            "byteLength" : 648,
            "uri" : "red_box.bin"
        }
    ]
}
